<?xml version="1.0" encoding="UTF-8"?>
<svg width="33px" height="35px" viewBox="0 0 33 35" version="1.1" xmlns="http://www.w3.org/2000/svg" xmlns:xlink="http://www.w3.org/1999/xlink">
    <title>Group</title>
    <g id="Page-1" stroke="none" stroke-width="1" fill="none" fill-rule="evenodd">
        <g id="Transaction" transform="translate(-110.000000, -372.000000)">
            <g id="transaction" transform="translate(84.000000, 334.000000)">
                <g id="Group" transform="translate(26.000000, 38.000000)">
                    <ellipse id="Oval" fill="#0182FF" cx="16.5" cy="17.5" rx="16.5" ry="17.5"></ellipse>
                    <g id="bitcoin-svgrepo-com" transform="translate(16.210526, 17.807018) rotate(-15.000000) translate(-16.210526, -17.807018) translate(9.263158, 7.982456)" fill="#FFFFFF" fill-rule="nonzero">
                        <path d="M11.3863796,9.09330005 C12.3890656,8.55806314 13.0157786,7.61502666 12.8686706,6.04511293 C12.6709771,3.89901049 10.9018528,3.18049288 8.66870927,2.9765931 L8.66761553,0.382598459 C8.6681624,0.374293552 8.67226392,0.36713415 8.67226392,0.358542867 C8.67226392,0.160656988 8.51914033,0.000572752185 8.33019676,0.000286376093 L8.33019676,0.000286376093 L8.33019676,0.000286376093 L7.2878626,0.000286376093 L7.2878626,0.000286376093 L7.2878626,0.000286376093 L7.28758917,0.000286376093 L7.28758917,0.000286376093 C7.09891903,0.000572752185 6.94606887,0.160656988 6.94606887,0.358256491 L6.94606887,0.358256491 L6.93813926,0.358256491 L6.93950643,2.89898518 C6.48451062,2.89898518 6.01967115,2.90843559 5.5581129,2.91845875 L5.5572926,0.389757861 C5.5581129,0.37887557 5.56330816,0.369425159 5.56330816,0.358256491 C5.56330816,0.160370612 5.41018457,0.000286376093 5.221241,1.0027435e-12 L5.221241,1.0027435e-12 L5.221241,1.0027435e-12 L4.17890685,1.0027435e-12 L4.17890685,1.0027435e-12 L4.17890685,1.0027435e-12 L4.17863341,1.0027435e-12 L4.17863341,1.0027435e-12 C3.98996327,0.000286376093 3.83711312,0.160370612 3.83711312,0.357970115 C3.83711312,0.358256491 3.83738655,0.358542867 3.83738655,0.358829243 L3.82891007,0.358829243 L3.82945694,2.97716585 C3.45485101,2.98518438 3.08708096,2.99348929 2.72833426,2.99348929 L2.72806083,2.98403888 L0.342067164,2.98403888 L0.342067164,2.98776177 C0.15312359,2.98776177 -2.16473693e-13,3.14813238 -2.16473693e-13,3.34601826 L-2.16473693e-13,4.55624363 C-2.16473693e-13,4.7541295 0.15312359,4.91450012 0.342067164,4.91450012 C0.342614034,4.91450012 0.342887469,4.91421374 0.343434339,4.91421374 L0.343434339,4.91965489 C0.343434339,4.91965489 1.62092258,4.89359466 1.59959465,4.91736388 C2.30013508,4.91765025 2.52845329,5.3434915 2.59489799,5.71091203 L2.59626516,9.10246409 L2.5965386,9.11535101 L2.59790577,13.8654713 C2.56728106,14.0962904 2.43767287,14.4648564 1.94822425,14.4657155 C1.97037249,14.4860482 0.690696767,14.4654292 0.690696767,14.4654292 L0.690423332,14.4671474 C0.688235852,14.4671474 0.686595242,14.4657155 0.684407763,14.4657155 C0.520073338,14.4657155 0.389371416,14.58943 0.356285783,14.7512325 L0.342340599,14.7503734 L0.0273434983,16.2306514 L0.0347262428,16.2320833 C0.0333590679,16.2452566 0.0273434983,16.2567116 0.0273434983,16.2704577 C0.0273434983,16.4606114 0.170076559,16.6126771 0.348903038,16.6244185 L0.348082733,16.6298597 L2.59927295,16.6290005 C3.01817534,16.6290005 3.4305153,16.6361599 3.83519907,16.6387373 L3.83711312,19.2911527 L3.83793342,19.2911527 C3.83793342,19.4887522 3.99105701,19.6491228 4.18000059,19.6491228 L4.18000059,19.6491228 L4.18000059,19.6491228 L5.22233474,19.6491228 L5.22233474,19.6491228 L5.22233474,19.6491228 L5.22260818,19.6491228 C5.41127831,19.6488364 5.56412847,19.4884658 5.56412847,19.2908663 L5.56412847,19.2908663 L5.56467534,19.2908663 L5.5635816,16.6708114 C6.0379913,16.6808346 6.49708863,16.6845575 6.945522,16.683412 L6.94606887,19.2911527 L6.94688918,19.2911527 C6.94716261,19.4887522 7.10001277,19.6491228 7.28868291,19.6491228 L7.28868291,19.6491228 L7.28868291,19.6491228 L8.33101706,19.6491228 L8.33101706,19.6491228 L8.33101706,19.6491228 L8.3312905,19.6491228 C8.51996064,19.6488364 8.67281079,19.4884658 8.67281079,19.2908663 C8.67281079,19.2908663 8.67281079,19.2905799 8.67281079,19.2905799 L8.67499827,19.2905799 L8.6744514,16.6424602 C11.5824324,16.4663389 13.6178825,15.6982782 13.8694426,12.8376675 C14.0723314,10.5349173 13.03738,9.50739988 11.3863796,9.09330005 Z M5.59912815,5.04823775 C6.57556447,5.047665 9.64295811,4.72119625 9.64405185,6.85584364 C9.64432529,8.90285995 6.57665821,8.66516779 5.60022189,8.66574055 L5.59912815,5.04823775 Z M5.60213593,14.4800343 L5.60131563,10.4911018 C6.77380483,10.4911018 10.4501382,10.1365682 10.450959,12.4828475 C10.4525991,14.7326181 6.77462514,14.4780297 5.60213593,14.4800343 Z" id="Shape"></path>
                    </g>
                </g>
            </g>
        </g>
    </g>
</svg>