<?xml version="1.0" encoding="UTF-8"?>
<svg width="156px" height="33px" viewBox="0 0 156 33" version="1.1" xmlns="http://www.w3.org/2000/svg" xmlns:xlink="http://www.w3.org/1999/xlink">
    <title>logo_blue</title>
    <g id="Symbols" stroke="none" stroke-width="1" fill="none" fill-rule="evenodd">
        <g id="header" transform="translate(-64.000000, -32.000000)" fill="#0182FF" fill-rule="nonzero">
            <g id="logo_blue" transform="translate(64.000000, 32.000000)">
                <path d="M28,16.0439353 L28,15.9986983 C28,11.6012808 31.3130006,8 36.0259775,8 C38.4291714,8 40.0086197,8.70569785 41.363076,9.75796563 C41.5304567,9.88506522 41.6658312,10.0489317 41.7587678,10.2367125 C41.8517045,10.4244934 41.8997138,10.6310994 41.898884,10.8403679 C41.8995953,11.0166038 41.8648626,11.1912023 41.7965826,11.3538908 C41.7283027,11.5165792 41.6280165,11.6640708 41.5015326,11.787648 C41.3751672,11.9112253 41.2250936,12.0082964 41.0602022,12.0734425 C40.8954294,12.1384707 40.719158,12.1700424 40.5418198,12.1663904 C40.2470068,12.1740478 39.9577653,12.085812 39.7179557,11.9152306 C38.6515554,11.0538419 37.4942338,10.5214232 36.0057069,10.5214232 C33.046553,10.5214232 30.8682325,12.952384 30.8682325,15.9811453 L30.8682325,16.0237907 C30.8682325,19.052552 33.023793,21.5061903 36.0057069,21.5061903 C37.6508273,21.5061903 38.7627475,20.9763043 39.8974276,20.0244416 C40.117915,19.8187544 40.4063267,19.7000071 40.7086078,19.690465 C41.0456216,19.6929389 41.3684104,19.8251158 41.6092869,20.0593118 C41.8500449,20.2935077 41.990161,20.6114628 42,20.9461463 C41.998459,21.1300396 41.9580363,21.3115768 41.8814584,21.4789774 C41.804762,21.6464958 41.6936885,21.7959901 41.5552319,21.9180358 C40.0970517,23.2038752 38.4342687,24 35.9071989,24 C31.3786727,24 28,20.4865898 28,16.0439353 L28,16.0439353 Z" id="Path"></path>
                <path d="M44,19.0531672 L44,19.0111442 C44,15.7222072 46.7705503,13 50.5117532,13 C54.2530791,13 57,15.6801842 57,18.9665673 L57,19.0111442 C57,22.2777928 54.2294497,25 50.4644943,25 C46.7469209,25 44,22.3223697 44,19.0531672 L44,19.0531672 Z M54.2058203,19.0531672 L54.2058203,19.0111442 C54.2058203,16.9868436 52.6578467,15.2990752 50.4644943,15.2990752 C48.2265907,15.2990752 46.7914722,16.9546879 46.7914722,18.9567001 L46.7914722,19.0012769 C46.7914722,21.0057269 48.3394458,22.6812341 50.5091687,22.6812341 C52.7732863,22.6910575 54.2058203,21.0354448 54.2058203,19.0531672 L54.2058203,19.0531672 Z" id="Shape"></path>
                <path d="M59,9.28924941 C59,8.50426851 59.6523957,8 60.5,8 C61.3476043,8 62,8.49682247 62,9.28924941 L62,9.42091272 C62,10.2083756 61.3476043,10.7325236 60.5,10.7325236 C59.6523957,10.7325236 59,10.2083756 59,9.42091272 L59,9.28924941 Z M59.1953246,13.5967454 C59.1916151,13.4224217 59.2227975,13.2491468 59.2867852,13.0871749 C59.3507728,12.9250866 59.4464065,12.777564 59.5680062,12.6532302 C59.6896059,12.5290129 59.8346213,12.4304315 59.9947063,12.3633122 C60.1547913,12.2961929 60.3265842,12.2620507 60.5,12.2627262 C60.674575,12.2617011 60.847643,12.2956103 61.0090031,12.3622635 C61.1704791,12.4289166 61.3171175,12.5271485 61.4405719,12.6512492 C61.5640263,12.77535 61.6617465,12.922756 61.7280526,13.0850775 C61.7943586,13.2473989 61.8280912,13.4212565 61.8270714,13.5967454 L61.8270714,22.7333567 C61.8123261,23.0741968 61.6673107,23.3962761 61.4221406,23.6322423 C61.1769706,23.8682085 60.8506569,24 60.5111283,24 C60.1717156,24 59.8454019,23.8682085 59.6002318,23.6322423 C59.3550618,23.3962761 59.2099304,23.0741968 59.1953246,22.7333567 L59.1953246,13.5967454 Z" id="Shape"></path>
                <path d="M64.000316,14.4549028 C63.9963575,14.2791774 64.0296332,14.1046266 64.0979165,13.9412349 C64.1661997,13.7779607 64.2682535,13.6292519 64.3980164,13.5039184 C64.5277794,13.3785848 64.6826537,13.2792107 64.8534855,13.2115517 C65.0241937,13.1440102 65.207643,13.109476 65.3927006,13.1101808 C65.5788714,13.109241 65.7635578,13.1433055 65.9358741,13.210612 C66.1080666,13.2778011 66.2646728,13.3768229 66.3962912,13.5019215 C66.5280334,13.6269026 66.6323138,13.7756114 66.703071,13.9391206 C66.773952,14.1027472 66.8098255,14.2781202 66.8087122,14.4549028 L66.8087122,15.0283595 C67.5999073,13.949105 68.7338793,13 70.6377698,13 C73.3987883,13 74.9994863,14.7529076 74.9994863,17.452336 L74.9994863,23.6649799 C75.0045581,23.8404704 74.9720246,24.0151386 74.9039887,24.1784128 C74.8359529,24.3416871 74.7337754,24.4901609 74.6036414,24.6149071 C74.4736311,24.7396534 74.3181382,24.8379703 74.1469353,24.9041022 C73.9756086,24.9702342 73.7920355,25.0027716 73.6071017,24.9997175 C73.4221679,25.0033589 73.2382237,24.9717612 73.0661549,24.9069214 C72.8942097,24.8420815 72.7376036,24.7451741 72.605614,24.6219549 C72.4736245,24.4987357 72.368973,24.3517889 72.2978446,24.1895718 C72.2265925,24.0273548 72.1902242,23.8532739 72.1910901,23.6775485 L72.1910901,18.2661231 C72.1910901,16.4607093 71.239083,15.4239765 69.5697307,15.4239765 C67.9454057,15.4239765 66.8087122,16.5032311 66.8087122,18.3112291 L66.8087122,23.6649799 C66.7931258,24.0086781 66.6382514,24.3332297 66.3766227,24.5712107 C66.1149939,24.8090743 65.766774,24.941808 65.4045759,24.941808 C65.0422541,24.941808 64.6940342,24.8090743 64.4324055,24.5712107 C64.1707767,24.3332297 64.0160261,24.0086781 64.000316,23.6649799 L64.000316,14.4549028 Z" id="Path"></path>
                <path d="M82.0980298,10.5858085 L78.2745075,10.5858085 C77.9364802,10.5858085 77.6123232,10.4495926 77.3733007,10.2071212 C77.1342783,9.96466181 77,9.63580305 77,9.2929103 C77,8.95000542 77.1342783,8.62114666 77.3733007,8.37868732 C77.6123232,8.13621584 77.9364802,8 78.2745075,8 L88.7254925,8 C89.0635198,8 89.3876768,8.13621584 89.6266993,8.37868732 C89.8657217,8.62114666 90,8.95000542 90,9.2929103 C90,9.63580305 89.8657217,9.96466181 89.6266993,10.2071212 C89.3876768,10.4495926 89.0635198,10.5858085 88.7254925,10.5858085 L84.8841541,10.5858085 L84.8841541,22.648637 C84.8687294,23.0122835 84.7155589,23.3557949 84.4564486,23.6076062 C84.1973382,23.8594175 83.8524954,24 83.4936627,24 C83.1348301,24 82.7898677,23.8594175 82.5307573,23.6076062 C82.2717665,23.3557949 82.1184765,23.0122835 82.1031714,22.648637 L82.0980298,10.5858085 Z" id="Path"></path>
                <path d="M90.0003275,14.3801946 C89.9961192,14.203219 90.0325006,14.0273081 90.1074352,13.8627539 C90.1825057,13.698318 90.2943647,13.5485512 90.4367677,13.422326 C90.5791708,13.296219 90.7491313,13.1960196 90.9366038,13.1279975 C91.1240762,13.0598572 91.3252596,13.0251955 91.5283434,13.0259053 C91.7327848,13.0248406 91.9353256,13.0592657 92.1244271,13.1269329 C92.3135285,13.1946 92.4852538,13.2943262 92.6298289,13.4203149 C92.774404,13.5463035 92.8888423,13.695952 92.966492,13.8607428 C93.0441417,14.0254153 93.0835095,14.202036 93.0824235,14.3801946 L93.0824235,15.5780924 C93.794303,14.1128384 95.1082392,13.0031919 96.4683308,13.0031919 C96.6727721,12.9904156 96.8778922,13.0160865 97.0699802,13.0785485 C97.2619325,13.1410105 97.4363728,13.2386073 97.5812194,13.3649509 C97.7262017,13.4911761 97.8381965,13.6431906 97.9098731,13.8104657 C97.981414,13.977859 98.0110078,14.1566091 97.9963466,14.3347677 C98.0088358,14.6409261 97.8929042,14.9406963 97.6702722,15.1777679 C97.4476402,15.4149578 97.1335118,15.5733604 96.7866674,15.623401 C94.5843752,15.9562949 93.0824235,17.4342069 93.0824235,20.1931809 L93.0824235,23.6556803 C93.083238,23.8332474 93.0434629,24.0091584 92.9655417,24.1732394 C92.8874847,24.3373204 92.7729107,24.4862591 92.6283356,24.6113013 C92.4836248,24.7363436 92.3118995,24.8351234 92.1230695,24.9018442 C91.9342396,24.9685649 91.732106,25.0019253 91.5283434,25 C91.3272958,25.0012155 91.1278773,24.9677368 90.9417623,24.9012527 C90.7557831,24.8348868 90.5866371,24.7368168 90.4445056,24.6128392 C90.3022383,24.4889799 90.1898362,24.3416974 90.113544,24.1795092 C90.0372519,24.017321 89.9988343,23.8435395 90.0003275,23.6683384 L90.0003275,14.3801946 Z" id="Path"></path>
                <path d="M98,21.417003 L98,21.3821027 C98,18.8854425 100.053275,17.6371123 103.025874,17.6371123 C104.137589,17.6264549 105.243652,17.7900647 106.299714,18.1215005 L106.299714,17.8343342 C106.299714,16.1889838 105.238984,15.3076925 103.279938,15.3076925 C102.358158,15.2969179 101.442642,15.4537351 100.582289,15.7695945 C100.44076,15.8121073 100.293457,15.8348277 100.144925,15.8370529 C99.9918478,15.8386925 99.8398762,15.8114046 99.697733,15.7569461 C99.5557126,15.7024876 99.4262235,15.6216781 99.3170054,15.5194366 C99.2077873,15.417078 99.120806,15.2952783 99.0610985,15.1608301 C99.0012681,15.026382 98.9700629,14.881979 98.9690801,14.7359364 C98.9738714,14.5088502 99.0484444,14.2880882 99.1833392,14.1008211 C99.3183568,13.913554 99.507922,13.768097 99.7285696,13.6823688 C100.979848,13.2163677 102.313807,12.9849482 103.657103,13.0007587 C105.477323,13.0007587 106.83917,13.4626608 107.690309,14.2965205 C108.588625,15.1329567 108.999821,16.3638367 108.999821,17.8793064 L108.999821,23.5915967 C109.002769,23.7625848 108.969353,23.9321675 108.901537,24.09039 C108.833843,24.2487297 108.733225,24.3921957 108.605702,24.5123558 C108.478178,24.6325159 108.326452,24.7267936 108.159738,24.7895673 C107.992901,24.8522239 107.814516,24.8822054 107.635393,24.8774037 C106.828727,24.8774037 106.276126,24.3506198 106.276126,23.7589542 L106.276126,23.3070069 C105.793428,23.8575652 105.185419,24.2960442 104.498291,24.5889491 C103.811286,24.881854 103.063099,25.0214553 102.310858,24.9973296 C100.029687,24.9973296 98,23.7464229 98,21.417003 L98,21.417003 Z M106.344187,20.5806839 L106.344187,19.7916793 C105.459754,19.4778108 104.522248,19.3212279 103.578476,19.3298944 C101.779265,19.3298944 100.721115,20.0539001 100.721115,21.262294 L100.721115,21.3071491 C100.721115,22.4257156 101.768699,23.0548581 103.093936,23.0548581 C104.937744,23.0648129 106.344187,22.053758 106.344187,20.5806839 L106.344187,20.5806839 Z" id="Shape"></path>
                <path d="M111.000596,19.049355 L111.000596,19.007244 C110.990623,18.2174611 111.145927,17.4335947 111.457508,16.7018158 C111.769089,15.969921 112.230744,15.3047307 112.815354,14.7453399 C113.399963,14.185833 114.09573,13.7432622 114.861913,13.4436134 C115.628096,13.1439646 116.449249,12.9932701 117.277334,13.0002306 C119.169927,13.0002306 120.471464,13.5887395 121.498149,14.4369904 C121.632535,14.5527665 121.740409,14.6938323 121.81496,14.8513712 C121.889145,15.0087942 121.929279,15.179326 121.930495,15.352062 C121.930495,15.5111091 121.897659,15.668416 121.832594,15.8149342 C121.768016,15.9614524 121.67352,16.0942816 121.554579,16.2056493 C121.435638,16.3170171 121.294685,16.4047192 121.139867,16.4636513 C120.98505,16.5226994 120.81953,16.5517014 120.652916,16.5490332 C120.356902,16.546133 120.069401,16.4543706 119.831033,16.286855 C119.132955,15.6598314 118.212807,15.3065869 117.253984,15.2976542 C115.244761,15.2976542 113.764326,16.9521612 113.764326,18.9528363 L113.764326,18.9973833 C113.764326,21.0426055 115.244761,22.6748389 117.36806,22.6748389 C118.367016,22.6650942 119.326325,22.3009449 120.059185,21.6533879 C120.228961,21.5071018 120.440331,21.4118591 120.666658,21.3796089 C120.892986,21.3473587 121.124179,21.3797249 121.331413,21.4724154 C121.538526,21.5651058 121.712437,21.7141762 121.831013,21.9008331 C121.949954,22.0874901 122.008329,22.3033811 121.9986,22.5214763 C122.007113,22.6813354 121.976709,22.8409625 121.90982,22.9878287 C121.842688,23.1345789 121.740774,23.2645079 121.612225,23.367291 C120.53884,24.3564918 119.237302,24.9995245 117.230633,24.9995245 C116.408994,25.0095012 115.593435,24.8624029 114.83236,24.5668144 C114.071285,24.2712259 113.380018,23.8331794 112.799301,23.2785449 C112.218583,22.7239103 111.760211,22.0639405 111.451306,21.337498 C111.1424,20.6111715 110.989164,19.8331054 111.000596,19.049355 L111.000596,19.049355 Z" id="Path"></path>
                <path d="M123,9.29499938 C122.998763,9.12437797 123.035565,8.95519732 123.10663,8.79733533 C123.177696,8.63947335 123.283025,8.4960882 123.416273,8.37555937 C123.548252,8.25501902 123.70688,8.15973244 123.880737,8.09526675 C124.054594,8.03080107 124.241141,7.9984472 124.428957,8 C124.618042,7.99813599 124.805859,8.03012102 124.980984,8.09420635 C125.15611,8.15829168 125.316008,8.25320942 125.451794,8.37351925 C125.586311,8.49382907 125.694178,8.6371566 125.767782,8.79528368 C125.841385,8.95342229 125.880725,9.12323688 125.881994,9.29499938 L125.881994,17.7278791 L131.29186,12.9069567 C131.673838,12.5605963 132.030435,12.3443659 132.531701,12.3443659 C132.700481,12.3449422 132.867993,12.3764086 133.024084,12.4369208 C133.180174,12.497433 133.321036,12.5857232 133.439056,12.69672 C133.555806,12.8076014 133.648445,12.9387688 133.709359,13.082615 C133.769003,13.226346 133.798191,13.3796436 133.791845,13.5336328 C133.791845,13.9659782 133.554537,14.2903238 133.148448,14.6367995 L129.809636,17.4256638 L133.619258,21.9443708 C133.850221,22.1848061 133.986007,22.4899029 134,22.8092922 C134.001235,22.9691597 133.966971,23.1275289 133.898444,23.2749482 C133.831185,23.4223675 133.730932,23.5556096 133.604029,23.6668368 C133.477126,23.7779488 133.327381,23.8647406 133.163677,23.9216798 C132.998703,23.9787341 132.823577,24.0048985 132.647182,23.9985591 C132.399722,24.0091631 132.152261,23.9610991 131.93145,23.8589776 C131.709371,23.7569712 131.521554,23.6043652 131.384499,23.4162586 L127.786805,19.0695215 L125.892146,20.7133793 L125.892146,22.701177 C125.876918,23.0384318 125.717021,23.356899 125.449256,23.5904186 C125.180222,23.8238228 124.823625,23.9541835 124.4518,23.9541835 C124.079975,23.9541835 123.723378,23.8238228 123.454344,23.5904186 C123.186579,23.356899 123.02795,23.0384318 123.011453,22.701177 L123,9.29499938 Z" id="Path"></path>
                <path d="M141.388698,24.9971241 C137.782884,24.9971241 135,22.5798728 135,19.0319867 L135,18.9874205 C135,15.701825 137.52407,13 141.083398,13 C145.040999,13 146.999697,16.0036912 146.999697,18.6608339 C147.003466,18.825636 146.972057,18.9893935 146.906725,19.1425897 C146.840137,19.2959021 146.742139,19.4355196 146.617757,19.5532021 C146.493375,19.6710008 146.343866,19.7645433 146.17928,19.8283751 C146.014694,19.892323 145.838801,19.9251673 145.660395,19.9251673 L137.855754,19.9251673 C138.161055,21.7955544 139.599612,22.8421634 141.436441,22.8421634 C142.515672,22.8510998 143.562238,22.4996769 144.382655,21.8524227 C144.583676,21.6882009 144.845003,21.599881 145.113869,21.6051036 C145.264634,21.603943 145.414144,21.6311005 145.553602,21.6847192 C145.69306,21.738454 145.819955,21.8174893 145.925491,21.917299 C146.031027,22.0171087 146.113948,22.1356036 146.167973,22.2655884 C146.223253,22.3955731 146.248381,22.5344942 146.244612,22.6738796 C146.242099,22.8242905 146.20692,22.9727284 146.141589,23.1107211 C146.077513,23.2487137 145.983285,23.3734759 145.866441,23.4779279 C144.642726,24.5002808 143.037071,25.0447078 141.388698,24.9971241 L141.388698,24.9971241 Z M144.216813,18.1759446 C144.029612,16.4761624 142.944098,15.1500863 141.05827,15.1500863 C139.315669,15.1500863 138.088185,16.3871461 137.831883,18.1759446 L144.216813,18.1759446 Z" id="Shape"></path>
                <path d="M148.000306,14.3801946 C147.996233,14.203219 148.032887,14.0273081 148.107552,13.8627539 C148.182217,13.698318 148.293536,13.5485512 148.436078,13.422326 C148.578621,13.296219 148.748314,13.1960196 148.937013,13.1279975 C149.124354,13.0598572 149.325271,13.0251955 149.527545,13.0259053 C149.732535,13.0248406 149.934809,13.0592657 150.124866,13.1269329 C150.313565,13.1946 150.484616,13.2943262 150.629873,13.4203149 C150.773773,13.5463035 150.889165,13.695952 150.966545,13.8607428 C151.043925,14.0254153 151.083294,14.202036 151.081936,14.3801946 L151.081936,15.5780924 C151.794648,14.1128384 153.107395,13.0031919 154.467657,13.0031919 C154.672646,12.9904156 154.877636,13.0160865 155.070407,13.0785485 C155.261821,13.1410105 155.435587,13.2386073 155.580845,13.3649509 C155.726102,13.4911761 155.838779,13.6431906 155.909371,13.8104657 C155.981321,13.977859 156.011187,14.1566091 155.996254,14.3347677 C156.008472,14.642464 155.890365,14.9432988 155.66637,15.1807253 C155.441018,15.4181518 155.123352,15.5756081 154.774462,15.623401 C152.58474,15.9562949 151.081936,17.4215489 151.081936,20.1931809 L151.081936,23.6556803 C151.083294,23.8332474 151.042567,24.0091584 150.965187,24.1732394 C150.887807,24.3373204 150.772416,24.4862591 150.628516,24.6113013 C150.483258,24.7363436 150.312207,24.8351234 150.123508,24.9018442 C149.933452,24.9685649 149.732535,25.0019253 149.527545,25 C149.326629,25.0012155 149.127069,24.9677368 148.941085,24.9012527 C148.755102,24.8348868 148.586766,24.7368168 148.444223,24.6128392 C148.301681,24.4889799 148.189005,24.3416974 148.112982,24.1795092 C148.03696,24.017321 147.998948,23.8435395 148.000306,23.6683384 L148.000306,14.3801946 Z" id="Path"></path>
                <path d="M0,19.6980536 L18.9599285,27.5366143 L18.9599285,31.1894786 C18.9599285,32.190675 18.1053597,33 17.0480688,33 C16.789595,33 16.5309968,32.9468464 16.3059989,32.8616357 C16.3059989,32.8616357 2.32943731,27.0790929 2.3278444,27.0785036 C1.00082737,26.5566321 0.067437263,25.3531929 0,23.9260607 L0,19.6980536 Z M1.31414686e-05,9.28516286 C1.31414686e-05,10.6609446 0.809225751,11.8503 1.99633344,12.4549071 L2.04670907,12.4801286 L3.9696693,13.3002964 L11.7291963,16.5058929 L11.7404586,16.5058929 L11.7404586,16.5165 L17.8691617,19.0512536 C18.5083149,19.3331679 18.9423816,19.932 18.9594307,20.637375 L18.9599285,20.6807464 L18.9599285,25.920675 L1.31414686e-05,18.0819964 L1.31414686e-05,9.28516286 Z M19,7.02661929 L19,12.2664536 C19,12.9440143 18.6012759,13.5399 18.0151365,13.8445607 L17.9765584,13.8640071 L13.7170301,15.6284464 L11.7823222,14.8281964 L11.7823222,14.8174714 L11.7710598,14.8174714 L5.96204536,12.4176643 L19,7.02661929 Z M17.0845314,0 C18.1277599,0 18.9738664,0.788280429 18.9958933,1.77106286 L18.9963911,1.81048607 L18.9963911,5.47411071 L4.00557189,11.6665607 L2.08513791,10.8475832 C1.11001107,10.3687768 0.381981176,9.49860214 0.132502342,8.45213679 C0.402315607,7.32885214 1.219929,6.40539429 2.30856776,5.9546025 L2.36415767,5.93209179 L16.4437604,0.106402961 C16.6459847,0.0318706929 16.8597824,0 17.0845314,0 L17.0845314,0 Z" id="Shape"></path>
            </g>
        </g>
    </g>
</svg>