<?xml version="1.0" encoding="UTF-8"?>
<svg width="346.178072px" height="411.939003px" viewBox="0 0 346.178072 411.939003" version="1.1" xmlns="http://www.w3.org/2000/svg" xmlns:xlink="http://www.w3.org/1999/xlink">
    <title>bitcoin-svgrepo-com</title>
    <g id="Page-1" stroke="none" stroke-width="1" fill="none" fill-rule="evenodd">
        <g id="Search" transform="translate(-547.410964, -334.030498)" fill="#EFEFEF" fill-rule="nonzero">
            <g id="bitcoin-svgrepo-com" transform="translate(720.500000, 540.000000) rotate(-15.000000) translate(-720.500000, -540.000000) translate(589.000000, 362.000000)">
                <path d="M215.521737,164.751111 C234.50061,155.053765 246.363052,137.967965 243.578587,109.524492 C239.836639,70.6417151 206.3506,57.6237156 164.081592,53.9294886 L164.060889,6.93186422 C164.071241,6.78139711 164.148874,6.65168408 164.148874,6.49602845 C164.148874,2.91076035 161.250546,0.0103770423 157.674217,0.00518852113 L157.674217,0.00518852113 L157.674217,0.00518852113 L137.944884,0.00518852113 L137.944884,0.00518852113 L137.944884,0.00518852113 L137.939709,0.00518852113 L137.939709,0.00518852113 C134.368555,0.0103770423 131.475402,2.91076035 131.475402,6.49083993 L131.475402,6.49083993 L131.32531,6.49083993 L131.351188,52.5233994 C122.739014,52.5233994 113.940518,52.6946206 105.204129,52.8762188 L105.188603,7.06157725 C105.204129,6.86441345 105.302466,6.69319225 105.302466,6.49083993 C105.302466,2.90557183 102.404138,0.00518852113 98.8278079,2.47960304e-14 L98.8278079,2.47960304e-14 L98.8278079,2.47960304e-14 L79.0984754,2.47960304e-14 L79.0984754,2.47960304e-14 L79.0984754,2.47960304e-14 L79.0932998,2.47960304e-14 L79.0932998,2.47960304e-14 C75.5221457,0.00518852113 72.6289934,2.90557183 72.6289934,6.48565141 C72.6289934,6.49083993 72.6341689,6.49602845 72.6341689,6.50121697 L72.4737258,6.50121697 L72.484077,53.9398656 C65.3935246,54.0851442 58.4323619,54.2356113 51.6419936,54.2356113 L51.636818,54.0643901 L6.47465764,54.0643901 L6.47465764,54.1318409 C2.89832796,54.1318409 -4.9287847e-14,57.0374127 -4.9287847e-14,60.6226808 L-4.9287847e-14,82.5493711 C-4.9287847e-14,86.1346392 2.89832796,89.040211 6.47465764,89.040211 C6.48500881,89.040211 6.4901844,89.0350225 6.50053557,89.0350225 L6.50053557,89.1336044 C6.50053557,89.1336044 30.6808717,88.661449 30.277176,89.0920962 C43.5370264,89.0972848 47.8586405,96.8126157 49.1163078,103.469488 L49.1421857,164.917144 L49.1473613,165.150627 L49.1732392,251.212627 C48.5935736,255.394575 46.140346,262.072202 36.8760477,262.087768 C37.2952702,262.456153 13.0735293,262.082579 13.0735293,262.082579 L13.0683538,262.11371 C13.0269491,262.11371 12.9958956,262.087768 12.9544909,262.087768 C9.8439639,262.087768 7.37003396,264.329209 6.7437881,267.260723 L6.47983323,267.245158 L0.517558564,294.064623 L0.657299377,294.090566 C0.631421449,294.329238 0.517558564,294.536779 0.517558564,294.785828 C0.517558564,298.231006 3.21921427,300.986111 6.60404728,301.19884 L6.58852053,301.297422 L49.1991171,301.281856 C57.1281143,301.281856 64.9328975,301.411569 72.5927643,301.458266 L72.6289934,349.514349 L72.6445201,349.514349 C72.6445201,353.094428 75.5428481,356 79.1191778,356 L79.1191778,356 L79.1191778,356 L98.8485102,356 L98.8485102,356 L98.8485102,356 L98.8536858,356 C102.42484,355.994811 105.317992,353.08924 105.317992,349.50916 L105.317992,349.50916 L105.328343,349.50916 L105.307641,302.03938 C114.287282,302.220979 122.977091,302.288429 131.465051,302.267675 L131.475402,349.514349 L131.490929,349.514349 C131.496104,353.094428 134.389257,356 137.960411,356 L137.960411,356 L137.960411,356 L157.689743,356 L157.689743,356 L157.689743,356 L157.694919,356 C161.266073,355.994811 164.159225,353.08924 164.159225,349.50916 C164.159225,349.50916 164.159225,349.503972 164.159225,349.503972 L164.20063,349.503972 L164.190279,301.525717 C219.232632,298.334776 257.759692,284.419163 262.521231,232.591025 C266.361515,190.870127 246.771924,172.253713 215.521737,164.751111 Z M105.980467,91.4632504 C124.462484,91.4528734 182.522203,85.5379593 182.542906,124.213196 C182.548081,161.300745 124.483186,156.994272 106.00117,157.004649 L105.980467,91.4632504 Z M106.037399,262.347194 L106.021872,190.076283 C128.214783,190.076283 197.800532,183.652894 197.816069,226.162447 C197.847112,266.923469 128.23031,262.310874 106.037399,262.347194 Z" id="Shape"></path>
            </g>
        </g>
    </g>
</svg>