<?xml version="1.0" encoding="UTF-8"?>
<svg width="243px" height="243px" viewBox="0 0 243 243" version="1.1" xmlns="http://www.w3.org/2000/svg" xmlns:xlink="http://www.w3.org/1999/xlink">
    <title>ql-fullscreen</title>
    <g id="AVR-Designs-Update" stroke="none" stroke-width="1" fill="none" fill-rule="evenodd">
        <g id="Events-page-redesign---Attending-virtual-version" transform="translate(-1104.000000, -414.000000)" fill="#0066CC" fill-rule="nonzero">
            <g id="ql-fullscreen" transform="translate(1104.000000, 414.000000)">
                <path d="M227.133,83.033 C235.416,83.033 242.133,76.317 242.133,68.033 L242.133,15 C242.133,6.716 235.416,0 227.133,0 L174.1,0 C165.816,0 159.1,6.716 159.1,15 C159.1,23.284 165.816,30 174.1,30 L190.92,30 L121.066,99.854 L51.213,30 L68.033,30 C76.317,30 83.033,23.284 83.033,15 C83.033,6.716 76.317,0 68.033,0 L15,0 C6.717,0 0,6.716 0,15 L0,68.033 C0,76.317 6.717,83.033 15,83.033 C23.285,83.033 30,76.317 30,68.033 L30,51.213 L99.854,121.067 L30,190.92 L30,174.1 C30,165.816 23.285,159.1 15,159.1 C6.717,159.1 0,165.816 0,174.1 L0,227.133 C0,235.417 6.717,242.133 15,242.133 L68.033,242.133 C76.317,242.133 83.033,235.417 83.033,227.133 C83.033,218.849 76.317,212.133 68.033,212.133 L51.213,212.133 L121.067,142.279 L190.921,212.133 L174.1,212.133 C165.816,212.133 159.1,218.849 159.1,227.133 C159.1,235.417 165.816,242.133 174.1,242.133 L227.133,242.133 C235.416,242.133 242.133,235.417 242.133,227.133 L242.133,174.1 C242.133,165.816 235.416,159.1 227.133,159.1 C218.848,159.1 212.133,165.816 212.133,174.1 L212.133,190.92 L142.279,121.066 L212.133,51.212 L212.133,68.032 C212.133,76.317 218.848,83.033 227.133,83.033 Z" id="XMLID_15_"></path>
            </g>
        </g>
    </g>
</svg>